<svg width="32" height="32" fill="none" xmlns="http://www.w3.org/2000/svg"><circle cx="16" cy="16" r="16" fill="#000"/><path d="M8.386 14.45c.939 0 1.513.441 1.723 1.325a6.58 6.58 0 0 1 .465-.67c.136-.164.319-.314.546-.45a1.46 1.46 0 0 1 .766-.206c1.203 0 1.805.725 1.805 2.174v2.803c0 .118.054.205.164.26.11.045.25.073.424.082.182 0 .291.004.328.013V20a13.863 13.863 0 0 0-1.272-.041c-.629 0-1.185.014-1.668.041v-.219c.602-.054.903-.15.903-.287.009 0 .013-1.039.013-3.117 0-.501-.068-.861-.205-1.08-.136-.219-.383-.328-.738-.328-.255 0-.501.086-.738.26-.237.173-.41.346-.52.519l-.164.26v3.486c0 .073.11.137.328.192.219.054.424.086.616.095V20c-.383-.027-.88-.041-1.49-.041-.666 0-1.195.014-1.587.041v-.219c.602-.027.903-.123.903-.287v-3.13c0-.511-.055-.871-.164-1.08-.11-.21-.338-.315-.684-.315-.228 0-.492.132-.793.396a2.167 2.167 0 0 0-.629.93v3.2c0 .163.315.259.943.286V20a30.81 30.81 0 0 0-1.64-.041c-.52 0-.944.014-1.272.041v-.219c.146.01.329 0 .547-.027.219-.037.328-.123.328-.26.028-1.212.041-2.16.041-2.844 0-.756-.013-1.34-.04-1.75-.01-.1-.178-.15-.506-.15-.119 0-.242.005-.37.014v-.22a3.919 3.919 0 0 0 1.846-.273l.178 1.463c.082-.118.16-.237.232-.355.073-.119.16-.232.26-.342.1-.118.2-.219.3-.3.11-.083.233-.151.37-.206.146-.054.296-.082.451-.082Zm9.757-3.022c2.252 4.338 3.437 6.644 3.555 6.918l3.022-6.864 2.351-.095v.273c-.118.01-.264.027-.437.055-.164.027-.351.082-.56.164-.201.073-.302.164-.302.273v7.041l.11.192a.794.794 0 0 0 .3.3c.137.074.315.114.534.124l.328-.028v.246A53.685 53.685 0 0 0 25.198 20c-.793 0-1.399.014-1.818.041v-.219c.018 0 .127-.009.328-.027.2-.018.35-.055.451-.11.246-.109.37-.255.37-.437v-6.193l-3.214 7.136h-.218L17.5 13.137V19.043c0 .164.009.278.027.342.018.054.06.105.123.15a.675.675 0 0 1 .178.123c.2.073.447.114.738.123h.082v.246c-.446-.027-.93-.04-1.449-.04-.574 0-1.08.018-1.518.054v-.219l.547-.068c.365-.055.602-.132.711-.233a.551.551 0 0 0 .15-.218l.042-.137c.018 0 .027-2.137.027-6.412-.046-.274-.237-.506-.574-.697a2.443 2.443 0 0 0-1.012-.329v-.246l2.57-.054Z" fill="#fff"/></svg>