<svg width="1199" height="1199" fill="none" xmlns="http://www.w3.org/2000/svg"><circle cx="599.5" cy="599.5" r="599.5" fill="#000"/><path d="M350.41 523.582c30.176 0 48.633 14.209 55.371 42.627 5.86-9.375 10.84-16.553 14.942-21.533 4.394-5.274 10.254-10.108 17.578-14.502 7.324-4.395 15.527-6.592 24.609-6.592 38.672 0 58.008 23.291 58.008 69.873v90.088c0 3.809 1.758 6.592 5.273 8.35 3.516 1.464 8.057 2.343 13.623 2.636 5.86 0 9.375.147 10.547.44V702c-8.496-.879-22.119-1.318-40.869-1.318-20.215 0-38.086.439-53.613 1.318v-7.031c19.336-1.758 29.004-4.834 29.004-9.229.293 0 .439-33.398.439-100.195 0-16.113-2.197-27.686-6.592-34.717-4.394-7.031-12.304-10.547-23.73-10.547-8.203 0-16.113 2.783-23.73 8.35-7.618 5.566-13.184 11.133-16.7 16.699l-5.273 8.35v112.06c0 2.344 3.515 4.395 10.547 6.153 7.031 1.757 13.623 2.783 19.775 3.076V702c-12.305-.879-28.271-1.318-47.9-1.318-21.387 0-38.379.439-50.977 1.318v-7.031c19.336-.879 29.004-3.955 29.004-9.229V585.105c0-16.406-1.758-27.978-5.273-34.716-3.516-6.739-10.84-10.108-21.973-10.108-7.324 0-15.82 4.248-25.488 12.744-9.375 8.204-16.114 18.164-20.215 29.883V685.74c0 5.274 10.107 8.35 30.322 9.229V702c-16.406-.879-33.984-1.318-52.734-1.318-16.699 0-30.323.439-40.869 1.318v-7.031c4.687.293 10.546 0 17.578-.879 7.031-1.172 10.547-3.955 10.547-8.35.879-38.965 1.318-69.433 1.318-91.406 0-24.316-.439-43.066-1.318-56.25-.293-3.223-5.713-4.834-16.26-4.834-3.809 0-7.764.146-11.865.439v-7.031c3.222.293 6.591.44 10.107.44 18.164 0 34.57-3.077 49.219-9.229l5.713 47.022a253.887 253.887 0 0 0 7.47-11.426c2.344-3.809 5.127-7.471 8.35-10.986 3.223-3.809 6.445-7.032 9.668-9.668 3.516-2.637 7.471-4.834 11.865-6.592a40.977 40.977 0 0 1 14.502-2.637Zm313.629-97.119c72.363 139.453 110.449 213.574 114.258 222.363l97.119-220.605 75.586-3.076v8.789c-3.809.293-8.496.878-14.063 1.757-5.273.879-11.279 2.637-18.017 5.274-6.445 2.344-9.668 5.273-9.668 8.789v226.318l3.516 6.153c2.343 4.101 5.566 7.324 9.668 9.668 4.394 2.343 10.107 3.662 17.138 3.955l10.547-.879v7.91c-16.699-.586-36.475-.879-59.326-.879-25.488 0-44.971.439-58.447 1.318v-7.031c.586 0 4.101-.293 10.546-.879 6.446-.586 11.28-1.758 14.502-3.515 7.911-3.516 11.866-8.204 11.866-14.063V478.758L765.992 708.152h-7.031L643.385 481.395v189.843c0 5.274.293 8.936.879 10.987.586 1.757 1.904 3.369 3.955 4.834 2.343 1.171 4.248 2.49 5.713 3.955 6.445 2.343 14.355 3.662 23.73 3.955h2.637v7.91c-14.356-.879-29.883-1.318-46.582-1.318-18.457 0-34.717.585-48.779 1.757v-7.031l17.578-2.197c11.718-1.758 19.336-4.248 22.851-7.471 2.051-1.758 3.662-4.101 4.834-7.031l1.319-4.395c.585 0 .878-68.701.878-206.103-1.464-8.789-7.617-16.26-18.457-22.412-10.839-6.153-21.679-9.668-32.519-10.547v-7.91l82.617-1.758Z" fill="#fff"/></svg>