<svg width="33" height="33" viewBox="0 0 33 33" fill="none" xmlns="http://www.w3.org/2000/svg">
<circle cx="16.8311" cy="16.4808" r="16" fill="black"/>
<path d="M11.2276 9.49359L11.3379 9.39194L11.3315 9.3849L11.3241 9.37873L11.2276 9.49359ZM10.8057 9.13916L10.9022 9.02428L10.8997 9.02223L10.8057 9.13916ZM9.8943 8.41342L9.98604 8.29441L9.97872 8.28943L9.8943 8.41342ZM9.13481 7.94085L9.20874 7.80963L9.19637 7.80406L9.13481 7.94085ZM8.65878 7.55205C8.58387 7.51667 8.49446 7.54872 8.45909 7.62363C8.42371 7.69854 8.45577 7.78795 8.53068 7.82332L8.65878 7.55205ZM10.0968 8.56954L10.1908 8.45259L10.1884 8.45074L10.0968 8.56954ZM9.69599 8.2784L9.7805 8.15428L9.77461 8.15065L9.69599 8.2784ZM9.05042 7.90287L8.98636 8.03853L8.98887 8.03966L9.05042 7.90287ZM9.2846 8.02524L9.36327 7.89739L9.35823 7.89455L9.2846 8.02524ZM12.1312 10.2527L11.3379 9.39194L11.1173 9.59524L11.9106 10.456L12.1312 10.2527ZM11.3241 9.37873L10.9022 9.0243L10.7092 9.25402L11.1312 9.60845L11.3241 9.37873ZM10.8997 9.02223L10.4271 8.64249L10.2392 8.87634L10.7117 9.25609L10.8997 9.02223ZM10.4271 8.64249L10.1908 8.45261L10.0029 8.68647L10.2392 8.87634L10.4271 8.64249ZM10.1884 8.45074L9.98588 8.29462L9.80273 8.53222L10.0053 8.68834L10.1884 8.45074ZM9.97872 8.28943L9.78041 8.15441L9.61157 8.40239L9.80989 8.53741L9.97872 8.28943ZM9.77461 8.15065L9.61005 8.04939L9.45282 8.30488L9.61738 8.40615L9.77461 8.15065ZM9.61005 8.04939L9.44549 7.94812L9.28826 8.20362L9.45282 8.30488L9.61005 8.04939ZM8.96257 7.69551L8.65878 7.55205L8.53068 7.82332L8.83447 7.96678L8.96257 7.69551ZM9.19637 7.80406L9.11198 7.76608L8.98887 8.03966L9.07326 8.07764L9.19637 7.80406ZM9.11447 7.76724L8.96257 7.69551L8.83447 7.96678L8.98637 8.03851L9.11447 7.76724ZM9.44549 7.94812L9.36321 7.89749L9.20599 8.15298L9.28826 8.20362L9.44549 7.94812ZM9.35823 7.89455L9.20844 7.81016L9.06118 8.07153L9.21097 8.15592L9.35823 7.89455Z" fill="white"/>
<path d="M11.768 9.18972L11.6522 9.2852L11.6544 9.28776L11.768 9.18972ZM11.211 8.51461L11.327 8.41891L11.3196 8.41117L11.211 8.51461ZM10.8735 8.16018L10.9822 8.05663L10.9774 8.05206L10.8735 8.16018ZM9.69786 6.98293C9.6256 6.94242 9.53418 6.96816 9.49367 7.04042C9.45316 7.11268 9.4789 7.2041 9.55116 7.24461L9.69786 6.98293ZM10.2152 7.52727L10.3192 7.41915L10.3119 7.41213L10.3037 7.40616L10.2152 7.52727ZM9.99582 7.36693L9.90546 7.48669L9.90732 7.48804L9.99582 7.36693ZM9.76375 7.19183L9.8541 7.07209L9.84598 7.06596L9.8371 7.06099L9.76375 7.19183ZM12.5228 9.83429L11.8815 9.09168L11.6544 9.28776L12.2958 10.0304L12.5228 9.83429ZM11.8837 9.09426L11.3267 8.41916L11.0953 8.61007L11.6523 9.28518L11.8837 9.09426ZM11.3196 8.41117L10.9821 8.05673L10.7648 8.26363L11.1024 8.61806L11.3196 8.41117ZM10.9774 8.05206L10.5386 7.63012L10.3307 7.84637L10.7695 8.26831L10.9774 8.05206ZM10.5386 7.63012L10.3192 7.41915L10.1113 7.6354L10.3307 7.84637L10.5386 7.63012ZM10.3037 7.40616L10.0843 7.24583L9.90732 7.48804L10.1267 7.64838L10.3037 7.40616ZM10.0862 7.2472L9.8541 7.07209L9.6734 7.31157L9.90547 7.48667L10.0862 7.2472ZM9.8371 7.06099L9.69786 6.98293L9.55116 7.24461L9.6904 7.32267L9.8371 7.06099Z" fill="white"/>
<path d="M13.7596 21.426L13.8272 21.2741L13.8609 21.1982L13.8778 21.1602L13.8862 21.1244L13.8947 21.0716V21.0547V21.021V21.0041L13.8989 20.9598L13.9031 20.9324L13.9073 20.9049L13.9115 20.8775L13.9284 20.7678V20.599V20.5484" stroke="white" stroke-width="0.3" stroke-linecap="round"/>
<path d="M11.2617 10.4557L11.3434 10.3297L11.3389 10.327L11.2617 10.4557ZM10.9579 10.2869L11.0276 10.1539L11.0234 10.1519L10.9579 10.2869ZM10.401 10.0168L10.4665 9.88177L10.4614 9.87954L10.401 10.0168ZM9.94528 9.83118L9.99285 9.68846L9.98166 9.68566L9.94528 9.83118ZM9.48958 9.79742V9.64742H9.47111L9.4532 9.6519L9.48958 9.79742ZM9.42207 9.8143L9.38558 9.66835L9.37463 9.672L9.42207 9.8143ZM9.37144 9.83118L9.324 9.68888L9.30838 9.69408L9.29426 9.70256L9.37144 9.83118ZM9.28705 9.88181L9.20987 9.75319L9.20122 9.75838L9.19334 9.76468L9.28705 9.88181ZM9.20266 9.94932L9.10896 9.83219L9.09077 9.84674L9.07785 9.86612L9.20266 9.94932ZM9.13515 10.0506L9.0102 9.96729L9.00652 9.97341L9.13515 10.0506ZM8.80399 10.311C8.76137 10.382 8.78441 10.4741 8.85544 10.5168C8.92648 10.5594 9.01862 10.5364 9.06124 10.4653L8.80399 10.311ZM11.4178 10.5569L11.5116 10.4398L11.5057 10.4351L11.4995 10.4311L11.4178 10.5569ZM11.1351 10.3797L11.2125 10.2509L11.2048 10.2468L11.1351 10.3797ZM10.0845 9.87759L10.1452 9.7397L10.132 9.73529L10.0845 9.87759ZM9.87776 9.8143L9.91415 9.66878L9.90664 9.6669L9.89898 9.66581L9.87776 9.8143ZM9.80138 9.80586L9.78768 9.95586H9.80138V9.80586ZM9.81869 9.80586L9.83991 9.65737L9.82935 9.65586H9.81869V9.80586ZM9.70899 9.79742L9.72269 9.64742H9.70899V9.79742ZM11.0234 10.1519L10.4664 9.88186L10.3355 10.1518L10.8925 10.4218L11.0234 10.1519ZM9.65836 9.64742H9.60772V9.94742H9.65836V9.64742ZM9.60772 9.64742H9.48958V9.94742H9.60772V9.64742ZM9.4532 9.6519L9.38569 9.66878L9.45845 9.95982L9.52596 9.94295L9.4532 9.6519ZM9.37463 9.672L9.324 9.68888L9.41887 9.97348L9.4695 9.9566L9.37463 9.672ZM9.29426 9.70256L9.20987 9.75319L9.36422 10.0104L9.44861 9.9598L9.29426 9.70256ZM9.19334 9.76468L9.10896 9.83219L9.29636 10.0665L9.38075 9.99894L9.19334 9.76468ZM9.07785 9.86612L9.01034 9.96738L9.25996 10.1338L9.32747 10.0325L9.07785 9.86612ZM9.00652 9.97341L8.80399 10.311L9.06124 10.4653L9.26377 10.1278L9.00652 9.97341ZM11.828 10.693L11.617 10.5242L11.4296 10.7584L11.6406 10.9272L11.828 10.693ZM11.617 10.5242L11.5116 10.4398L11.3241 10.674L11.4296 10.7584L11.617 10.5242ZM11.4995 10.4311L11.3434 10.3298L11.1801 10.5815L11.3362 10.6828L11.4995 10.4311ZM11.3389 10.327L11.2123 10.2511L11.058 10.5083L11.1846 10.5843L11.3389 10.327ZM11.2048 10.2468L11.0275 10.154L10.8883 10.4198L11.0655 10.5126L11.2048 10.2468ZM10.4614 9.87954L10.2504 9.78671L10.1296 10.0613L10.3406 10.1541L10.4614 9.87954ZM10.2504 9.78671L10.1449 9.7403L10.0241 10.0149L10.1296 10.0613L10.2504 9.78671ZM10.132 9.73529L9.99271 9.68888L9.89784 9.97348L10.0371 10.0199L10.132 9.73529ZM9.98166 9.68566L9.91415 9.66878L9.84138 9.95982L9.9089 9.9767L9.98166 9.68566ZM9.89898 9.66581L9.83991 9.65737L9.79748 9.95436L9.85655 9.96279L9.89898 9.66581ZM9.81869 9.65586H9.80138V9.95586H9.81869V9.65586ZM9.81503 9.65648L9.72263 9.64805L9.69535 9.9468L9.78774 9.95524L9.81503 9.65648ZM9.70899 9.64742H9.65836V9.94742H9.70899V9.64742Z" fill="white"/>
<path d="M11.5144 10.3375L11.3832 10.4104L11.3866 10.4159L11.5144 10.3375ZM11.3963 10.0844L11.2526 10.1275L11.2551 10.1356L11.2584 10.1434L11.3963 10.0844ZM11.295 9.74681L11.4387 9.7037L11.4382 9.70206L11.295 9.74681ZM11.1263 9.20672L11.2695 9.16195L11.2677 9.1568L11.1263 9.20672ZM11.025 8.9198L11.1666 8.86984L11.1643 8.86409L11.025 8.9198ZM10.89 8.54849L10.7429 8.57791L10.7447 8.58707L10.7477 8.59593L10.89 8.54849ZM10.8056 8.02529L10.9544 8.00274L10.9515 7.99054L10.8056 8.02529ZM10.7043 7.6371L10.848 7.5925L10.8436 7.58139L10.7043 7.6371ZM10.6537 7.43457H10.5037V7.45019L10.5069 7.46547L10.6537 7.43457ZM10.8037 7.08014C10.8037 6.9973 10.7365 6.93014 10.6537 6.93014C10.5708 6.93014 10.5037 6.9973 10.5037 7.08014H10.8037ZM11.6748 10.5991L11.5469 10.6775L11.5515 10.6851L11.5571 10.6921L11.6748 10.5991ZM11.4723 10.2616L11.3344 10.3207L11.3374 10.3277L11.3411 10.3344L11.4723 10.2616ZM10.9575 8.75103L10.8149 8.79854L10.8182 8.80673L10.9575 8.75103ZM10.8689 8.44301L10.7204 8.4655L10.7218 8.47243L10.8689 8.44301ZM10.7423 7.75946L10.8885 7.72464L10.8856 7.715L10.7423 7.75946ZM10.6874 7.59491L10.5407 7.62581L10.5433 7.63854L10.5482 7.65062L10.6874 7.59491ZM11.54 10.0413L11.4387 9.7037L11.1514 9.78991L11.2526 10.1275L11.54 10.0413ZM11.4382 9.70206L11.2694 9.16198L10.9831 9.25146L11.1519 9.79155L11.4382 9.70206ZM11.2677 9.1568L11.1664 8.86988L10.8835 8.96972L10.9848 9.25664L11.2677 9.1568ZM11.9191 10.6665L11.7925 10.5062L11.5571 10.6921L11.6836 10.8524L11.9191 10.6665ZM11.8027 10.5207L11.6423 10.2591L11.3866 10.4159L11.5469 10.6775L11.8027 10.5207ZM11.6456 10.2647L11.6034 10.1887L11.3411 10.3344L11.3833 10.4104L11.6456 10.2647ZM11.6101 10.2025L11.5342 10.0253L11.2584 10.1434L11.3344 10.3207L11.6101 10.2025ZM11.1643 8.86409L11.0968 8.69532L10.8182 8.80673L10.8857 8.97551L11.1643 8.86409ZM11.0998 8.70359L11.0323 8.50106L10.7477 8.59593L10.8152 8.79846L11.0998 8.70359ZM10.9961 8.2813L10.9539 8.00282L10.6573 8.04776L10.6995 8.32624L10.9961 8.2813ZM11.0371 8.51908L11.016 8.41359L10.7218 8.47243L10.7429 8.57791L11.0371 8.51908ZM11.0172 8.42054L10.9961 8.2813L10.6995 8.32624L10.7206 8.46548L11.0172 8.42054ZM10.9515 7.99054L10.9093 7.81333L10.6175 7.88281L10.6597 8.06003L10.9515 7.99054ZM10.9093 7.81333L10.8882 7.72472L10.5964 7.79421L10.6175 7.88281L10.9093 7.81333ZM10.8856 7.715L10.8476 7.59264L10.5611 7.68156L10.599 7.80392L10.8856 7.715ZM10.8436 7.58139L10.8267 7.5392L10.5482 7.65062L10.565 7.69281L10.8436 7.58139ZM10.8342 7.56401L10.8005 7.40367L10.5069 7.46547L10.5407 7.62581L10.8342 7.56401ZM10.8037 7.29955V7.08014H10.5037V7.29955H10.8037ZM10.8037 7.43457V7.40925H10.5037V7.43457H10.8037ZM10.8037 7.40925V7.29955H10.5037V7.40925H10.8037Z" fill="white"/>
<path d="M14.468 21.4767V21.2066V21.0969V21.0421V21.021L14.4617 20.9598L14.4553 20.9324L14.4427 20.8775L14.4174 20.7678" stroke="white" stroke-width="0.3" stroke-linecap="round"/>
<path d="M14.8729 22.6239L14.9067 22.4045L14.9236 22.2949L14.932 22.2275V22.0924L14.9236 21.9996L14.9067 21.814V21.5271V21.4765V21.4006V21.3753L14.8898 21.274L14.8645 21.1981L14.8392 21.139L14.6367 20.7678" stroke="white" stroke-width="0.3" stroke-linecap="round"/>
<path d="M12.4834 26.1977C12.4622 26.2778 12.5099 26.3599 12.59 26.3811C12.6701 26.4023 12.7522 26.3545 12.7734 26.2744L12.4834 26.1977ZM12.7803 25.6622L12.9254 25.7006L12.9265 25.696L12.7803 25.6622ZM12.8816 25.2234L13.0277 25.2571L13.0279 25.2566L12.8816 25.2234ZM12.966 24.8521L12.8246 24.8019L12.8217 24.8103L12.8197 24.8189L12.966 24.8521ZM13.1516 24.3289L13.2931 24.3791L13.2949 24.3732L13.1516 24.3289ZM13.371 23.62L13.2337 23.5597L13.2303 23.5675L13.2277 23.5757L13.371 23.62ZM13.6748 22.928L13.5375 22.8676L13.5375 22.8677L13.6748 22.928ZM13.8605 22.5061L13.7251 22.4414L13.7232 22.4457L13.8605 22.5061ZM14.0461 22.0842L14.1851 22.1408L14.1891 22.1309L14.1917 22.1205L14.0461 22.0842ZM14.0799 21.8985L14.2284 21.9197L14.2299 21.9092V21.8985H14.0799ZM14.0799 21.4259L13.9299 21.4166V21.4259H14.0799ZM14.0968 21.1559L14.2468 21.1653V21.1559H14.0968ZM14.0968 20.9027L13.9476 20.887L13.9468 20.8949V20.9027H14.0968ZM14.1136 20.7761L14.2613 20.803L14.2619 20.799L14.1136 20.7761ZM14.1052 20.8226L13.9572 20.7957L13.956 20.8069L14.1052 20.8226ZM14.063 22.0167L14.2085 22.053L14.2104 22.0455L14.2115 22.0379L14.063 22.0167ZM13.9533 22.312L14.0889 22.3768L14.0922 22.3686L13.9533 22.312ZM12.7734 26.2744L12.9253 25.7006L12.6353 25.6238L12.4834 26.1977L12.7734 26.2744ZM12.9265 25.696L13.0277 25.2571L12.7354 25.1897L12.6342 25.6285L12.9265 25.696ZM13.0279 25.2566L13.1122 24.8853L12.8197 24.8189L12.7353 25.1902L13.0279 25.2566ZM13.1073 24.9023L13.293 24.3791L13.0103 24.2787L12.8246 24.8019L13.1073 24.9023ZM13.2949 24.3732L13.5143 23.6644L13.2277 23.5757L13.0083 24.2845L13.2949 24.3732ZM13.5084 23.6803L13.8122 22.9883L13.5375 22.8677L13.2337 23.5597L13.5084 23.6803ZM13.8121 22.9885L13.9978 22.5665L13.7232 22.4457L13.5375 22.8676L13.8121 22.9885ZM14.2299 21.7635V21.4259H13.9299V21.7635H14.2299ZM14.2296 21.4353L14.2465 21.1653L13.9471 21.1465L13.9302 21.4166L14.2296 21.4353ZM14.2619 20.799L14.2788 20.6893L13.9823 20.6436L13.9654 20.7533L14.2619 20.799ZM14.2468 21.1559V21.0124H13.9468V21.1559H14.2468ZM14.2468 21.0124V20.9407H13.9468V21.0124H14.2468ZM14.2459 20.9184L14.2544 20.8383L13.956 20.8069L13.9476 20.887L14.2459 20.9184ZM14.2528 20.8494L14.2612 20.803L13.9661 20.7493L13.9576 20.7957L14.2528 20.8494ZM14.2468 20.9407V20.9048H13.9468V20.9407H14.2468ZM14.2468 20.9048V20.9027H13.9468V20.9048H14.2468ZM14.2299 21.8985V21.8648H13.9299V21.8985H14.2299ZM14.2299 21.8648V21.7635H13.9299V21.8648H14.2299ZM14.1917 22.1205L14.2085 22.053L13.9175 21.9803L13.9006 22.0478L14.1917 22.1205ZM14.2115 22.0379L14.2284 21.9197L13.9314 21.8773L13.9145 21.9954L14.2115 22.0379ZM13.9958 22.5708L14.0886 22.3767L13.818 22.2473L13.7252 22.4414L13.9958 22.5708ZM14.0922 22.3686L14.1851 22.1408L13.9072 22.0276L13.8144 22.2554L14.0922 22.3686Z" fill="white"/>
<path d="M12.8515 22.4002C12.8116 22.4728 12.838 22.564 12.9106 22.6039C12.9832 22.6438 13.0744 22.6173 13.1143 22.5448L12.8515 22.4002ZM13.1686 22.1349L13.3 22.2072L13.3048 22.1985L13.3084 22.1893L13.1686 22.1349ZM13.2867 21.8311L13.4265 21.8855L13.4277 21.8824L13.2867 21.8311ZM13.3542 21.6455L13.2175 21.5824L13.2132 21.5942L13.3542 21.6455ZM13.4555 21.426L13.3289 21.3455L13.3235 21.354L13.3193 21.3632L13.4555 21.426ZM13.5831 21.1993L13.7197 21.2613L13.7259 21.2476L13.7293 21.233L13.5831 21.1993ZM13.6243 20.9704L13.7732 20.9882L13.7743 20.9793V20.9704H13.6243ZM13.6116 21.0758L13.7578 21.1096L13.7596 21.1017L13.7605 21.0937L13.6116 21.0758ZM13.5441 21.2868L13.6706 21.3673L13.6772 21.3571L13.682 21.3459L13.5441 21.2868ZM13.5567 21.2573L13.4202 21.1952L13.4189 21.1982L13.5567 21.2573ZM13.1143 22.5448L13.3 22.2072L13.0371 22.0626L12.8515 22.4002L13.1143 22.5448ZM13.3084 22.1893L13.4265 21.8855L13.1469 21.7767L13.0288 22.0805L13.3084 22.1893ZM13.4277 21.8824L13.4952 21.6967L13.2132 21.5942L13.1457 21.7799L13.4277 21.8824ZM13.4904 21.7083L13.5917 21.4889L13.3193 21.3632L13.218 21.5826L13.4904 21.7083ZM13.7743 20.9028V20.5822H13.4743V20.9028H13.7743ZM13.7743 20.5822V20.4134H13.4743V20.5822H13.7743ZM13.7743 20.9704V20.9619H13.4743V20.9704H13.7743ZM13.7743 20.9619V20.9028H13.4743V20.9619H13.7743ZM13.7451 21.1644L13.7578 21.1096L13.4654 21.0421L13.4528 21.097L13.7451 21.1644ZM13.7605 21.0937L13.7732 20.9882L13.4753 20.9525L13.4627 21.058L13.7605 21.0937ZM13.7324 21.2193L13.7451 21.1644L13.4528 21.097L13.4401 21.1518L13.7324 21.2193ZM13.582 21.5066L13.6411 21.4138L13.388 21.2527L13.3289 21.3455L13.582 21.5066ZM13.6411 21.4138L13.6706 21.3673L13.4175 21.2063L13.388 21.2527L13.6411 21.4138ZM13.682 21.3459L13.6946 21.3164L13.4189 21.1982L13.4062 21.2277L13.682 21.3459ZM13.6933 21.3193L13.7197 21.2613L13.4466 21.1372L13.4202 21.1952L13.6933 21.3193ZM13.7293 21.233L13.7324 21.2193L13.4401 21.1518L13.437 21.1655L13.7293 21.233Z" fill="white"/>
<path d="M12.173 24.5148L12.308 23.9747L12.3502 23.73L12.3713 23.6076L12.3818 23.5464L12.3871 23.5158L12.3924 23.4684V23.4473V23.4093V23.3333V23.1814V23.1224V23.0928V23.0802L12.3987 23.0464L12.405 23.0295L12.4177 22.9958L12.443 22.9283L12.4683 22.8608L12.481 22.8101L12.4936 22.7089V22.6582V22.4641V22.3882L12.519 22.1013L12.5443 21.9325L12.6118 21.4768L12.6455 21.3502L12.6624 21.2869L12.6962 21.2068L12.7215 21.1646L12.7637 21.1055L12.8481 20.9873L12.9325 20.8776L12.9747 20.8228L12.9958 20.7954L13.0169 20.7679L13.0242 20.7521L13.0316 20.7363L13.0464 20.7046L13.0759 20.6414L13.1055 20.5781L13.1202 20.5464L13.135 20.4979L13.1434 20.4705L13.1519 20.4262L13.1688 20.3376L13.2025 20.1603" stroke="white" stroke-width="0.3" stroke-linecap="round" stroke-linejoin="round"/>
<path d="M12.4933 19.9914L12.4343 19.8536L12.4216 19.859L12.4101 19.8666L12.4933 19.9914ZM12.2909 20.1264L12.2077 20.0016L12.19 20.0134L12.1764 20.0295L12.2909 20.1264ZM12.1053 20.3458L11.9907 20.2489L11.9838 20.2571L11.9781 20.2663L12.1053 20.3458ZM11.9365 20.6158L11.8093 20.5363L11.8022 20.5476L11.7972 20.56L11.9365 20.6158ZM11.869 20.7845L12.0037 20.8518L12.0083 20.8402L11.869 20.7845ZM11.7847 20.9532L11.6505 20.8861L11.6409 20.9053L11.6371 20.9264L11.7847 20.9532ZM11.7172 21.3244L11.5696 21.2976L11.5672 21.3109V21.3244H11.7172ZM11.5672 21.5607C11.5672 21.6435 11.6343 21.7107 11.7172 21.7107C11.8 21.7107 11.8672 21.6435 11.8672 21.5607H11.5672ZM12.6705 19.7523L12.4343 19.8536L12.5524 20.1293L12.7887 20.0281L12.6705 19.7523ZM12.4101 19.8666L12.2077 20.0016L12.3741 20.2512L12.5765 20.1162L12.4101 19.8666ZM12.1764 20.0295L11.9907 20.2489L12.2198 20.4427L12.4054 20.2233L12.1764 20.0295ZM11.9781 20.2663L11.8093 20.5363L12.0637 20.6953L12.2325 20.4253L11.9781 20.2663ZM11.7972 20.56L11.7298 20.7288L12.0083 20.8402L12.0758 20.6715L11.7972 20.56ZM11.7349 20.7174L11.6505 20.8861L11.9188 21.0203L12.0032 20.8516L11.7349 20.7174ZM11.6371 20.9264L11.5696 21.2976L11.8647 21.3513L11.9322 20.9801L11.6371 20.9264ZM11.5672 21.3244V21.5607H11.8672V21.3244H11.5672Z" fill="white"/>
<path d="M10.7179 23.5124C10.6863 23.589 10.7229 23.6767 10.7995 23.7082C10.8761 23.7398 10.9637 23.7032 10.9953 23.6266L10.7179 23.5124ZM10.9747 23.2826L11.1134 23.3397C11.1155 23.3347 11.1173 23.3296 11.1188 23.3244L10.9747 23.2826ZM11.1266 22.7594L11.2707 22.8012C11.2732 22.7926 11.2749 22.7838 11.2758 22.7748L11.1266 22.7594ZM11.1772 22.2699L11.0322 22.2318C11.0302 22.2392 11.0288 22.2468 11.028 22.2545L11.1772 22.2699ZM11.2616 21.9493L11.1253 21.8868C11.1217 21.8946 11.1188 21.9028 11.1166 21.9111L11.2616 21.9493ZM11.4473 21.5442L11.3225 21.461C11.3181 21.4676 11.3142 21.4745 11.3109 21.4817L11.4473 21.5442ZM11.7511 21.0885L11.645 20.9824C11.638 20.9894 11.6318 20.9971 11.6263 21.0053L11.7511 21.0885ZM12.0886 20.751L12.1947 20.857C12.1986 20.8531 12.2023 20.849 12.2058 20.8447L12.0886 20.751ZM12.2912 20.4978L12.1759 20.4017L12.174 20.4041L12.2912 20.4978ZM10.9953 23.6266L11.1134 23.3397L10.836 23.2255L10.7179 23.5124L10.9953 23.6266ZM11.1188 23.3244L11.2707 22.8012L10.9826 22.7176L10.8307 23.2408L11.1188 23.3244ZM11.2758 22.7748L11.3264 22.2854L11.028 22.2545L10.9774 22.744L11.2758 22.7748ZM11.3223 22.3081L11.4067 21.9874L11.1166 21.9111L11.0322 22.2318L11.3223 22.3081ZM11.398 22.0118L11.5836 21.6067L11.3109 21.4817L11.1253 21.8868L11.398 22.0118ZM11.5721 21.6274L11.8759 21.1717L11.6263 21.0053L11.3225 21.461L11.5721 21.6274ZM11.8571 21.1946L12.1947 20.857L11.9826 20.6449L11.645 20.9824L11.8571 21.1946ZM12.2058 20.8447L12.4083 20.5915L12.174 20.4041L11.9715 20.6573L12.2058 20.8447ZM12.4064 20.5938L12.9127 19.9862L12.6823 19.7942L12.1759 20.4018L12.4064 20.5938Z" fill="white"/>
<path d="M14.0995 30.079C14.0921 30.1615 14.1529 30.2344 14.2354 30.2418C14.3179 30.2493 14.3909 30.1884 14.3983 30.1059L14.0995 30.079ZM14.4346 28.0249L14.2858 28.0032L14.2851 28.013L14.4346 28.0249ZM14.9578 25.6283L14.8143 25.5841L14.8127 25.5902L14.9578 25.6283ZM16.0042 22.9616L15.8717 22.8911L15.869 22.8966L16.0042 22.9616ZM16.8987 21.4005L17.0287 21.4753L17.0383 21.4586L17.0434 21.4399L16.8987 21.4005ZM17 20.776H17.15V20.7595L17.1464 20.7435L17 20.776ZM16.8987 20.3794L17.0397 20.3281L17.0335 20.3112L17.0235 20.2962L16.8987 20.3794ZM16.3924 19.9996L16.4525 19.8622L16.4435 19.8583L16.4341 19.8555L16.3924 19.9996ZM15.7173 19.873L15.6896 19.7256L15.6595 19.7312L15.6341 19.7482L15.7173 19.873ZM15.2278 20.4722L15.3278 20.584L15.3332 20.5792L15.338 20.5739L15.2278 20.4722ZM14.8565 20.6916L14.8777 20.8401L14.895 20.8376L14.9112 20.8313L14.8565 20.6916ZM14.3839 20.6916L14.3431 20.8359L14.3528 20.8387L14.3627 20.8401L14.3839 20.6916ZM13.5063 20.2865L13.4263 20.4139L13.4361 20.4191L13.5063 20.2865ZM12.3586 19.5861L12.4308 19.4545L12.4257 19.452L12.3586 19.5861ZM11.7173 19.3414L11.6457 19.4732L11.6573 19.4795L11.6698 19.4837L11.7173 19.3414ZM11.1434 19.0038L11.0239 19.0945L11.0369 19.1116L11.0541 19.1243L11.1434 19.0038ZM10.8228 18.4638L10.9544 18.3919L10.9501 18.384L10.9448 18.3766L10.8228 18.4638ZM10.1308 17.9574L10.0247 18.0635L10.0451 18.0839L10.0717 18.0953L10.1308 17.9574ZM9.97888 17.6536L9.83506 17.611L9.82888 17.6319V17.6536H9.97888ZM10.1308 17.1979L9.99432 17.1356L9.99371 17.137L10.1308 17.1979ZM11.4135 14.8519L11.5574 14.8959L11.5599 14.8845L11.4135 14.8519ZM11.4472 14.5313H11.5978L11.5966 14.518L11.4472 14.5313ZM11.2616 12.4384H11.111L11.1122 12.4517L11.2616 12.4384ZM11.2785 11.8815L11.1328 11.8458L11.1306 11.8545L11.1295 11.8634L11.2785 11.8815ZM11.6329 11.0207L11.5041 10.9428L11.4987 10.9536L11.6329 11.0207ZM12.1223 10.2781L12.0055 10.1831L11.998 10.1943L12.1223 10.2781ZM12.578 9.73802L12.6912 9.837L12.6971 9.82928L12.578 9.73802ZM12.9156 9.18106L13.0575 9.22961L13.0623 9.21558L13.0643 9.20088L12.9156 9.18106ZM12.9156 7.79709L13.0647 7.78052L13.0644 7.77848L12.9156 7.79709ZM12.7468 7.17262L12.8901 7.12702L12.8861 7.11706L12.7468 7.17262ZM11.5316 4.65785L11.6663 4.59146L11.6627 4.585L11.5316 4.65785ZM11.3797 4.35405L11.4009 4.20556C11.3469 4.19784 11.293 4.22007 11.2601 4.2636C11.2272 4.30714 11.2205 4.36511 11.2427 4.41497L11.3797 4.35405ZM12.1055 4.62409L12.1807 4.49434L12.1741 4.49047L12.167 4.48731L12.1055 4.62409ZM12.9493 5.11355L13.0361 4.99044L13.0246 4.98379L12.9493 5.11355ZM13.692 5.63675L13.6056 5.75937L13.6131 5.76465L13.6211 5.76897L13.692 5.63675ZM14.1814 5.88148L14.1376 6.02493L14.1482 6.02817L14.1592 6.02982L14.1814 5.88148ZM14.3671 5.89836L14.3608 6.04823L14.3706 6.04863L14.3803 6.04777L14.3671 5.89836ZM14.2658 3.92367H14.1155L14.1161 3.93248L14.2658 3.92367ZM14.2827 3.20637L14.1401 3.15885L14.1377 3.16772L14.2827 3.20637ZM14.4177 2.97009L14.3277 2.85009L14.3131 2.86101L14.3016 2.8751L14.4177 2.97009ZM14.6277 2.87726V2.72726H14.6116L14.5958 2.73069L14.6277 2.87726ZM15.0084 2.97009L15.0823 2.83953L15.076 2.83596L15.0693 2.83301L15.0084 2.97009ZM15.8354 3.45954L15.9374 3.34954L15.9292 3.34192L15.9199 3.3356L15.8354 3.45954ZM17.2363 4.93633L17.3481 4.83635L17.3479 4.83611L17.2363 4.93633ZM18.519 6.37093L18.636 6.27675L18.6308 6.27095L18.519 6.37093ZM19.751 7.82241L19.646 7.92948L19.6514 7.93479L19.6573 7.93954L19.751 7.82241ZM20.1899 8.15152L20.1023 8.27332L20.1145 8.28206L20.1281 8.28823L20.1899 8.15152ZM20.7131 8.38781L20.6511 8.52501L20.6631 8.52926L20.7131 8.38781ZM21.2869 8.59034L21.3569 8.45768L21.3472 8.45255L21.3368 8.44889L21.2869 8.59034ZM21.8945 8.91101L21.9921 8.79712L21.9794 8.78619L21.9645 8.77836L21.8945 8.91101ZM22.6034 9.51861L22.7199 9.42414L22.7113 9.41357L22.701 9.40472L22.6034 9.51861ZM23.1097 10.1431L23.2268 10.0494L23.2262 10.0486L23.1097 10.1431ZM23.7953 10.9689C23.7526 10.8978 23.6605 10.8748 23.5895 10.9174C23.5184 10.96 23.4954 11.0522 23.538 11.1232L23.7953 10.9689ZM11.7679 4.47219L11.8296 4.33513L11.8206 4.33175L11.7679 4.47219ZM11.4979 4.37093L11.5505 4.23048L11.5352 4.22475L11.5191 4.22244L11.4979 4.37093ZM11.4472 4.50595L11.3096 4.56711L11.3161 4.5788L11.4472 4.50595ZM17 21.0292L17.1447 21.0686L17.15 21.0492V21.0292H17ZM16.6287 20.1093L16.7092 19.9828L16.7027 19.9786L16.6958 19.9752L16.6287 20.1093ZM16.0717 19.9068L16.1135 19.7625L16.105 19.7605L16.0717 19.9068ZM15.8861 19.8646L15.9193 19.7183L15.9102 19.7163L15.901 19.7153L15.8861 19.8646ZM15.5865 19.9954L15.472 19.8985L15.4673 19.9041L15.4631 19.91L15.5865 19.9954ZM15.7848 19.8604V19.7104H15.7708L15.7571 19.7129L15.7848 19.8604ZM15.6329 19.9405L15.5265 19.8341L15.5184 19.8437L15.6329 19.9405ZM15.3586 20.3245L15.4772 20.4167L15.482 20.4099L15.3586 20.3245ZM15.3291 20.3625L15.4397 20.4646L15.4475 20.4546L15.3291 20.3625ZM15.1477 20.5439L15.2215 20.6745L15.2356 20.6665L15.2477 20.6557L15.1477 20.5439ZM14.9536 20.6536L15.0082 20.7933L15.0181 20.7894L15.0274 20.7842L14.9536 20.6536ZM14.7384 20.7085V20.8585H14.749L14.7596 20.857L14.7384 20.7085ZM13.9367 20.5144L13.8663 20.6474L13.877 20.652L13.9367 20.5144ZM14.2721 20.66L14.2124 20.7976L14.2216 20.8016L14.2313 20.8043L14.2721 20.66ZM14.5021 20.7085L14.4809 20.857L14.4914 20.8585H14.5021V20.7085ZM12.6202 19.7296L12.7002 19.6024L12.6924 19.5981L12.6202 19.7296ZM12.173 19.4933L12.2401 19.3591L12.2305 19.3544L12.2204 19.351L12.173 19.4933ZM11.0506 18.8815L10.9189 18.9533L10.9243 18.9632L10.9311 18.9721L11.0506 18.8815ZM11.2742 19.1009L11.1849 19.2214L11.1934 19.2277L11.2027 19.2327L11.2742 19.1009ZM10.0126 17.8224L9.87337 17.8781L9.88073 17.8965L9.89264 17.9124L10.0126 17.8224ZM10.0633 17.8899L9.94327 17.9799L9.94967 17.9884L9.9572 17.996L10.0633 17.8899ZM9.97888 17.738H9.82888V17.7669L9.83961 17.7937L9.97888 17.738ZM10.0801 17.3119L9.94308 17.2509L9.93911 17.2599L9.93633 17.2692L10.0801 17.3119ZM10.1972 17.0524L10.0665 16.9775L10.0608 16.9901L10.1972 17.0524ZM11.4472 14.7L11.5937 14.7326L11.5972 14.7165V14.7H11.4472ZM11.3639 15.0144L11.4941 15.0889L11.5025 15.0743L11.5074 15.0582L11.3639 15.0144ZM11.2616 12.0207L11.1127 12.0027L11.1116 12.0117V12.0207H11.2616ZM11.3038 11.7781L11.1649 11.7214L11.1607 11.7317L11.1581 11.7424L11.3038 11.7781ZM11.5147 11.2612L11.3793 11.1962L11.3759 11.2045L11.5147 11.2612ZM11.7299 10.8604L11.6054 10.7765L11.6016 10.7827L11.7299 10.8604ZM11.5654 11.1557L11.4312 11.0886L11.4302 11.0908L11.5654 11.1557ZM12.3418 10.0081L12.2288 9.90922L12.2253 9.91347L12.3418 10.0081ZM12.7721 9.48485L12.8912 9.57612L12.8958 9.57011L12.8998 9.56368L12.7721 9.48485ZM12.8607 9.34139L12.9884 9.42022L12.9972 9.40588L13.0027 9.38995L12.8607 9.34139ZM12.9493 8.92789L13.098 8.94772L13.0993 8.93785V8.92789H12.9493ZM12.9493 8.10089H13.0993V8.09258L13.0984 8.08432L12.9493 8.10089ZM12.865 7.54392L13.0118 7.51056L13.0079 7.49844L12.865 7.54392ZM12.9072 7.72958L13.056 7.71097L13.0551 7.70359L13.0534 7.69634L12.9072 7.72958ZM12.1139 5.83928L11.9794 5.9056L11.9797 5.90637L12.1139 5.83928ZM12.6139 6.83928L12.7537 6.78353L12.7481 6.7722L12.6139 6.83928ZM14.4008 5.0376L14.2525 5.06064L14.2536 5.06646L14.4008 5.0376ZM14.4852 5.46798L14.6326 5.44033L14.6324 5.43911L14.4852 5.46798ZM14.519 5.84772L14.625 5.95379L14.6544 5.92441L14.6645 5.8841L14.519 5.84772ZM14.4624 5.88992L14.4756 6.03933L14.5122 6.0361L14.5431 6.01636L14.4624 5.88992ZM14.5358 5.73802H14.6858V5.72408L14.6833 5.71037L14.5358 5.73802ZM14.2996 4.3857L14.15 4.40011L14.1513 4.40872L14.2996 4.3857ZM14.2827 4.21059L14.1328 4.21941L14.1334 4.22498L14.2827 4.21059ZM14.3038 3.14308L14.1752 3.06591L14.1667 3.08003L14.1615 3.09565L14.3038 3.14308ZM14.2658 3.26966L14.1209 3.23101L14.1158 3.25001V3.26966H14.2658ZM14.3797 3.0165L14.2636 2.92151L14.2567 2.92996L14.2511 2.93932L14.3797 3.0165ZM14.4683 2.93211L14.4106 2.79365L14.3933 2.80086L14.3783 2.81211L14.4683 2.93211ZM14.5696 2.88992L14.5377 2.74335L14.5244 2.74624L14.5119 2.75145L14.5696 2.88992ZM14.6709 2.87726L14.6878 2.72822L14.6794 2.72726H14.6709V2.87726ZM14.8565 2.90257L14.9174 2.7655L14.8995 2.75752L14.8801 2.75444L14.8565 2.90257ZM14.7637 2.88781L14.7873 2.73952L14.7806 2.73877L14.7637 2.88781ZM15.6498 3.33295L15.7346 3.20859L15.7236 3.2024L15.6498 3.33295ZM16.4936 4.10933L16.6054 4.009L16.6005 4.00409L16.4936 4.10933ZM16.2236 3.83506L16.3305 3.72982L16.3303 3.7296L16.2236 3.83506ZM16.038 3.6473L16.1447 3.54174L16.1399 3.5373L16.038 3.6473ZM14.5358 5.78021L14.6814 5.81659L14.6858 5.79868V5.78021H14.5358ZM14.5021 5.8646L14.5828 5.99105L14.5966 5.98224L14.6082 5.97067L14.5021 5.8646ZM14.2658 5.89414L14.2436 6.04248L14.2515 6.04367L14.2596 6.04401L14.2658 5.89414ZM14.1055 5.85827L14.0346 5.99049L14.0476 5.99743L14.0616 6.00172L14.1055 5.85827ZM16.7806 20.219L16.8945 20.1214L16.8869 20.1127L16.8782 20.1051L16.7806 20.219ZM16.8312 20.2781L16.956 20.1949L16.951 20.1874L16.9451 20.1805L16.8312 20.2781ZM16.9325 20.4722L17.0789 20.4397L17.0768 20.4301L17.0734 20.4209L16.9325 20.4722ZM16.7215 20.1684L16.8191 20.0545L16.811 20.0476L16.802 20.0418L16.7215 20.1684ZM16.5274 20.0587L16.5946 19.9244L16.5875 19.9213L16.5274 20.0587ZM15.6666 19.9068L15.5834 19.782L15.5711 19.7902L15.5606 19.8007L15.6666 19.9068ZM15.8439 19.8604L15.8588 19.7111L15.8513 19.7104H15.8439V19.8604ZM16.0569 22.8625L15.9269 22.7876L15.9245 22.792L16.0569 22.8625ZM15.4641 24.1768L15.3261 24.1178L15.3238 24.1237L15.4641 24.1768ZM15.8185 23.3477L15.6832 23.2827L15.6806 23.2888L15.8185 23.3477ZM14.9029 25.8372L14.7578 25.7991L14.7576 25.8001L14.9029 25.8372ZM15.1477 25.0123L15.0071 24.959L15.0043 24.9681L15.1477 25.0123ZM14.5548 27.2032L14.4095 27.1662L14.4075 27.1737L14.4064 27.1815L14.5548 27.2032ZM14.4261 28.1304L14.5755 28.1439L14.5757 28.1424L14.4261 28.1304ZM19.0759 7.06291L18.959 7.15703L18.9626 7.16115L19.0759 7.06291ZM19.405 7.44266L19.5245 7.35148L19.5184 7.34442L19.405 7.44266ZM19.5274 7.603L19.4082 7.694L19.4147 7.70254L19.4224 7.71007L19.5274 7.603ZM19.9198 7.95743L19.826 8.07471L19.8323 8.07923L19.9198 7.95743ZM10.9448 18.3766C10.8633 18.2625 10.7341 18.1499 10.6019 18.0556C10.4678 17.96 10.3193 17.875 10.1899 17.8196L10.0717 18.0953C10.1786 18.1411 10.3085 18.2148 10.4276 18.2998C10.5486 18.3861 10.6472 18.476 10.7007 18.5509L10.9448 18.3766ZM11.5966 14.518L11.411 12.4252L11.1122 12.4517L11.2978 14.5445L11.5966 14.518ZM12.0302 4.75385L12.8741 5.2433L13.0246 4.98379L12.1807 4.49434L12.0302 4.75385ZM12.863 5.23617L13.6056 5.75937L13.7784 5.51413L13.0357 4.99092L12.863 5.23617ZM17.1244 5.03631L18.4071 6.47091L18.6308 6.27095L17.3481 4.83635L17.1244 5.03631ZM20.1281 8.28823L20.6513 8.52451L20.7748 8.2511L20.2516 8.01481L20.1281 8.28823ZM20.6631 8.52926L21.237 8.73179L21.3368 8.44889L20.763 8.24636L20.6631 8.52926ZM21.2169 8.723L21.8245 9.04367L21.9645 8.77836L21.3569 8.45768L21.2169 8.723ZM21.7969 9.0249L22.5057 9.6325L22.701 9.40472L21.9921 8.79712L21.7969 9.0249ZM22.4868 9.61308L22.9932 10.2376L23.2262 10.0486L22.7199 9.42414L22.4868 9.61308ZM22.9926 10.2368C22.9924 10.2366 22.9933 10.2377 22.9955 10.2408C22.9976 10.2437 23.0003 10.2476 23.0037 10.2525C23.0104 10.2624 23.019 10.2754 23.0292 10.2912C23.0496 10.3227 23.0755 10.3637 23.105 10.411C23.1639 10.5055 23.2358 10.623 23.3043 10.7357C23.3727 10.8483 23.4374 10.9557 23.4819 11.0297C23.5042 11.0667 23.5213 11.0953 23.5314 11.112C23.5364 11.1204 23.5395 11.1257 23.5406 11.1275C23.5414 11.1288 23.5406 11.1275 23.5398 11.1262C23.5393 11.1252 23.5355 11.118 23.5325 11.1115C23.5967 10.9207 23.7947 10.9683 23.7965 10.971C23.7969 10.9716 23.7975 10.9726 23.7977 10.9729C23.7978 10.973 23.7979 10.9733 23.798 10.9734C23.7981 10.9737 23.7982 10.9738 23.7981 10.9736C23.7978 10.973 23.7969 10.9715 23.7953 10.9689L23.538 11.1232C23.5396 11.1258 23.5407 11.1277 23.5413 11.1286C23.5414 11.1288 23.5416 11.1292 23.5419 11.1296C23.542 11.1298 23.5422 11.1301 23.5423 11.1303C23.5425 11.1306 23.5431 11.1315 23.5435 11.1322C23.5453 11.1349 23.7433 11.1825 23.8075 10.9917C23.8045 10.9852 23.8007 10.978 23.8001 10.977C23.7999 10.9766 23.7996 10.976 23.7994 10.9758C23.7994 10.9757 23.7992 10.9754 23.7992 10.9753C23.799 10.9751 23.7989 10.9749 23.7988 10.9748C23.7987 10.9745 23.7985 10.9742 23.7983 10.9739C23.797 10.9718 23.7937 10.9662 23.7887 10.9578C23.7786 10.941 23.7613 10.9122 23.739 10.8751C23.6944 10.8009 23.6294 10.6931 23.5607 10.58C23.492 10.4669 23.4194 10.3482 23.3596 10.2523C23.303 10.1615 23.2507 10.0792 23.2268 10.0494L22.9926 10.2368ZM11.7064 4.60898L12.0439 4.76088L12.167 4.48731L11.8295 4.33541L11.7064 4.60898ZM11.3585 4.50254L11.4767 4.51942L11.5191 4.22244L11.4009 4.20556L11.3585 4.50254ZM11.4452 4.51138L11.7152 4.61264L11.8206 4.33175L11.5505 4.23048L11.4452 4.51138ZM11.6627 4.585L11.5784 4.4331L11.3161 4.5788L11.4005 4.7307L11.6627 4.585ZM11.5843 4.44503L11.5168 4.29313L11.2427 4.41497L11.3102 4.56687L11.5843 4.44503ZM17.0434 21.4399L17.1447 21.0686L16.8553 20.9897L16.754 21.361L17.0434 21.4399ZM17.15 21.0292V20.776H16.85V21.0292H17.15ZM16.4341 19.8555L16.1134 19.7627L16.03 20.0509L16.3507 20.1437L16.4341 19.8555ZM16.105 19.7605L15.9193 19.7183L15.8528 20.0109L16.0385 20.0531L16.105 19.7605ZM15.4631 19.91L15.3492 20.0746L15.5959 20.2453L15.7098 20.0808L15.4631 19.91ZM15.7571 19.7129L15.6896 19.7256L15.7449 20.0205L15.8124 20.0078L15.7571 19.7129ZM15.5184 19.8437L15.472 19.8985L15.701 20.0923L15.7474 20.0374L15.5184 19.8437ZM15.3492 20.0746L15.2353 20.2391L15.482 20.4099L15.5959 20.2453L15.3492 20.0746ZM15.2402 20.2324L15.2107 20.2704L15.4475 20.4546L15.477 20.4166L15.2402 20.2324ZM15.2189 20.2607L15.1176 20.3705L15.338 20.5739L15.4393 20.4642L15.2189 20.2607ZM15.1278 20.3604L15.0476 20.4321L15.2477 20.6557L15.3278 20.584L15.1278 20.3604ZM15.0738 20.4133L14.9768 20.4682L15.1244 20.7294L15.2215 20.6745L15.0738 20.4133ZM14.9768 20.4682L14.8798 20.523L15.0274 20.7842L15.1244 20.7294L14.9768 20.4682ZM14.8989 20.5139L14.8019 20.5519L14.9112 20.8313L15.0082 20.7933L14.8989 20.5139ZM14.8353 20.5431L14.7172 20.56L14.7596 20.857L14.8777 20.8401L14.8353 20.5431ZM14.7384 20.5585H14.6202V20.8585H14.7384V20.5585ZM14.0069 20.3818L13.5765 20.154L13.4361 20.4191L13.8665 20.647L14.0069 20.3818ZM14.22 20.4738L13.9964 20.3768L13.877 20.652L14.1006 20.749L14.22 20.4738ZM14.4248 20.5473L14.313 20.5156L14.2313 20.8043L14.3431 20.8359L14.4248 20.5473ZM14.3318 20.5224L14.22 20.4738L14.1006 20.749L14.2124 20.7976L14.3318 20.5224ZM14.6202 20.5585H14.5021V20.8585H14.6202V20.5585ZM14.5233 20.56L14.4052 20.5431L14.3627 20.8401L14.4809 20.857L14.5233 20.56ZM13.5861 20.1595L12.9954 19.7882L12.8358 20.0422L13.4265 20.4135L13.5861 20.1595ZM12.9954 19.7882L12.7001 19.6026L12.5404 19.8566L12.8358 20.0422L12.9954 19.7882ZM12.6924 19.5981L12.4308 19.4546L12.2865 19.7176L12.5481 19.8611L12.6924 19.5981ZM12.0685 19.3004L11.7647 19.1991L11.6698 19.4837L11.9736 19.585L12.0685 19.3004ZM12.4257 19.452L12.2401 19.3591L12.1059 19.6275L12.2915 19.7203L12.4257 19.452ZM12.2204 19.351L12.0685 19.3004L11.9736 19.585L12.1255 19.6356L12.2204 19.351ZM11.7888 19.2096L11.4935 19.0492L11.3504 19.3129L11.6457 19.4732L11.7888 19.2096ZM11.1063 18.6704L10.9544 18.3919L10.6911 18.5356L10.843 18.8141L11.1063 18.6704ZM11.2629 18.9132L11.1701 18.7908L10.9311 18.9721L11.0239 19.0945L11.2629 18.9132ZM11.1823 18.8096L11.1063 18.6704L10.843 18.8141L10.9189 18.9533L11.1823 18.8096ZM11.4935 19.0492L11.3458 18.9691L11.2027 19.2327L11.3504 19.3129L11.4935 19.0492ZM11.3636 18.9804L11.2328 18.8834L11.0541 19.1243L11.1849 19.2214L11.3636 18.9804ZM10.2368 17.8514L10.1693 17.7838L9.9572 17.996L10.0247 18.0635L10.2368 17.8514ZM10.1833 17.7999L10.1326 17.7324L9.89264 17.9124L9.94327 17.9799L10.1833 17.7999ZM10.1519 17.7667L10.1182 17.6823L9.83961 17.7937L9.87337 17.8781L10.1519 17.7667ZM10.1289 17.738V17.6536H9.82888V17.738H10.1289ZM10.5774 16.6902L10.9107 16.1079L10.6504 15.9589L10.3171 16.5411L10.5774 16.6902ZM10.4107 16.9813L10.5774 16.6902L10.3171 16.5411L10.1504 16.8323L10.4107 16.9813ZM10.1227 17.6962L10.1565 17.5823L9.86882 17.4971L9.83506 17.611L10.1227 17.6962ZM10.1565 17.5823L10.1902 17.4684L9.90257 17.3832L9.86882 17.4971L10.1565 17.5823ZM10.1902 17.4684L10.224 17.3545L9.93633 17.2692L9.90257 17.3832L10.1902 17.4684ZM10.2172 17.3728L10.2679 17.2589L9.99371 17.137L9.94308 17.2509L10.2172 17.3728ZM10.2672 17.2602L10.3337 17.1147L10.0608 16.9901L9.99433 17.1356L10.2672 17.2602ZM10.3274 17.1269L10.4107 16.9813L10.1504 16.8323L10.0671 16.9778L10.3274 17.1269ZM10.9107 16.1079L11.2441 15.5256L10.9837 15.3766L10.6504 15.9589L10.9107 16.1079ZM11.2441 15.5256L11.4107 15.2345L11.1504 15.0854L10.9837 15.3766L11.2441 15.5256ZM11.5599 14.8845L11.5937 14.7326L11.3008 14.6675L11.2671 14.8194L11.5599 14.8845ZM11.5972 14.7V14.5313H11.2972V14.7H11.5972ZM11.4107 15.2345L11.4941 15.0889L11.2337 14.9399L11.1504 15.0854L11.4107 15.2345ZM11.5074 15.0582L11.5569 14.8957L11.27 14.8082L11.2204 14.9706L11.5074 15.0582ZM11.4116 12.4384V12.16H11.1116V12.4384H11.4116ZM11.4848 11.7314L11.5692 11.5247L11.2915 11.4113L11.2071 11.618L11.4848 11.7314ZM11.4116 12.16V12.0207H11.1116V12.16H11.4116ZM11.4105 12.0388L11.4274 11.8995L11.1295 11.8634L11.1127 12.0027L11.4105 12.0388ZM11.4242 11.9172L11.4495 11.8138L11.1581 11.7424L11.1328 11.8458L11.4242 11.9172ZM11.4427 11.8348L11.4848 11.7314L11.2071 11.618L11.1649 11.7214L11.4427 11.8348ZM11.5692 11.5247L11.6536 11.3179L11.3759 11.2045L11.2915 11.4113L11.5692 11.5247ZM11.9851 10.7501L12.2467 10.3619L11.998 10.1943L11.7363 10.5825L11.9851 10.7501ZM11.8543 10.9442L11.9851 10.7501L11.7363 10.5825L11.6055 10.7766L11.8543 10.9442ZM11.65 11.3261L11.7006 11.2206L11.4302 11.0908L11.3795 11.1963L11.65 11.3261ZM11.6995 11.2228L11.7671 11.0878L11.4987 10.9536L11.4312 11.0887L11.6995 11.2228ZM11.7612 11.0984L11.8583 10.9381L11.6016 10.7827L11.5046 10.943L11.7612 11.0984ZM12.2388 10.3727L12.4582 10.1026L12.2253 9.91347L12.0059 10.1835L12.2388 10.3727ZM12.4546 10.1068L12.6909 9.83679L12.4652 9.63924L12.2289 9.90928L12.4546 10.1068ZM12.6971 9.82928L12.8912 9.57612L12.6531 9.39359L12.459 9.64675L12.6971 9.82928ZM12.8998 9.56368L12.9884 9.42022L12.7331 9.26257L12.6445 9.40603L12.8998 9.56368ZM13.0027 9.38995L13.0575 9.22961L12.7737 9.1325L12.7188 9.29284L13.0027 9.38995ZM13.0643 9.20088L13.098 8.94772L12.8007 8.90807L12.7669 9.16123L13.0643 9.20088ZM13.0993 8.92789V8.64097H12.7993V8.92789H13.0993ZM13.0993 8.64097V8.28654H12.7993V8.64097H13.0993ZM13.0993 8.28654V8.10089H12.7993V8.28654H13.0993ZM13.0984 8.08432L13.0647 7.78052L12.7665 7.81365L12.8003 8.11745L13.0984 8.08432ZM13.0079 7.49844L12.8898 7.12714L12.6039 7.2181L12.722 7.58941L13.0079 7.49844ZM13.0644 7.77848L13.056 7.71097L12.7583 7.74818L12.7667 7.81569L13.0644 7.77848ZM13.0534 7.69634L13.0112 7.51068L12.7187 7.57717L12.7609 7.76282L13.0534 7.69634ZM12.2484 5.77297L11.6662 4.59154L11.3971 4.72416L11.9794 5.9056L12.2484 5.77297ZM12.5814 6.43887L12.2481 5.7722L11.9797 5.90637L12.3131 6.57303L12.5814 6.43887ZM12.8861 7.11706L12.7532 6.78373L12.4746 6.89484L12.6075 7.22817L12.8861 7.11706ZM12.7481 6.7722L12.5814 6.43887L12.3131 6.57303L12.4797 6.90637L12.7481 6.7722ZM14.6324 5.43911L14.548 5.00873L14.2536 5.06646L14.338 5.49684L14.6324 5.43911ZM14.3803 6.04777L14.4756 6.03933L14.4492 5.7405L14.3538 5.74894L14.3803 6.04777ZM14.6833 5.71037L14.6326 5.44033L14.3378 5.49562L14.3884 5.76566L14.6833 5.71037ZM14.549 5.01457L14.4815 4.57997L14.1851 4.62602L14.2526 5.06062L14.549 5.01457ZM14.4158 3.81397V3.45954H14.1158V3.81397H14.4158ZM14.1158 3.80553V3.81397H14.4158V3.80553H14.1158ZM14.4815 4.57997L14.4478 4.36267L14.1513 4.40872L14.1851 4.62602L14.4815 4.57997ZM14.4489 4.37131L14.432 4.1962L14.1334 4.22498L14.1502 4.40009L14.4489 4.37131ZM14.4158 3.92367V3.80553H14.1158V3.92367H14.4158ZM14.4324 4.20178L14.4155 3.91486L14.1161 3.93248L14.1329 4.2194L14.4324 4.20178ZM14.4158 3.45954V3.33295H14.1158V3.45954H14.4158ZM14.425 3.25381L14.4461 3.19052L14.1615 3.09565L14.1404 3.15894L14.425 3.25381ZM14.4324 3.22026L14.4704 3.15696L14.2131 3.00262L14.1752 3.06591L14.4324 3.22026ZM14.4158 3.33295V3.26966H14.1158V3.33295H14.4158ZM14.4107 3.30831L14.4276 3.24502L14.1377 3.16772L14.1209 3.23101L14.4107 3.30831ZM14.4704 3.15696L14.5083 3.09367L14.2511 2.93932L14.2131 3.00262L14.4704 3.15696ZM14.4958 3.11148L14.5338 3.06507L14.3016 2.8751L14.2636 2.92151L14.4958 3.11148ZM14.5077 3.09009L14.5583 3.05211L14.3783 2.81211L14.3277 2.85009L14.5077 3.09009ZM14.526 3.07057L14.5767 3.04948L14.4613 2.77255L14.4106 2.79365L14.526 3.07057ZM14.5767 3.04948L14.6273 3.02838L14.5119 2.75145L14.4613 2.77255L14.5767 3.04948ZM14.6015 3.03648L14.6596 3.02382L14.5958 2.73069L14.5377 2.74335L14.6015 3.03648ZM14.6277 3.02726H14.6709V2.72726H14.6277V3.02726ZM14.7956 3.03965L14.9475 3.10716L15.0693 2.83301L14.9174 2.7655L14.7956 3.03965ZM14.6539 3.0263L14.7468 3.03685L14.7806 2.73877L14.6878 2.72822L14.6539 3.0263ZM14.7401 3.03594L14.833 3.05071L14.8801 2.75444L14.7873 2.73967L14.7401 3.03594ZM14.9346 3.10064L15.5759 3.46351L15.7236 3.2024L15.0823 2.83953L14.9346 3.10064ZM15.5653 3.45689L15.7509 3.58347L15.9199 3.3356L15.7343 3.20902L15.5653 3.45689ZM16.382 4.20954L17.1247 5.03655L17.3479 4.83611L16.6053 4.00911L16.382 4.20954ZM16.1167 3.9403L16.3868 4.21457L16.6005 4.00409L16.3305 3.72982L16.1167 3.9403ZM15.7334 3.56954L15.936 3.7573L16.1399 3.5373L15.9374 3.34954L15.7334 3.56954ZM15.9313 3.75277L16.1169 3.94053L16.3303 3.7296L16.1446 3.54184L15.9313 3.75277ZM14.6858 5.78021V5.73802H14.3858V5.78021H14.6858ZM14.6645 5.8841L14.6729 5.85035L14.3819 5.77759L14.3734 5.81134L14.6645 5.8841ZM14.6729 5.85035L14.6814 5.81659L14.3903 5.74383L14.3819 5.77759L14.6729 5.85035ZM14.5431 6.01636L14.5828 5.99105L14.4214 5.73815L14.3817 5.76347L14.5431 6.01636ZM14.6082 5.97067L14.625 5.95379L14.4129 5.74166L14.396 5.75853L14.6082 5.97067ZM14.1592 6.02982L14.2436 6.04248L14.2881 5.7458L14.2037 5.73314L14.1592 6.02982ZM14.2596 6.04401L14.3608 6.04823L14.3733 5.74849L14.272 5.74427L14.2596 6.04401ZM13.6211 5.76897L13.8574 5.89556L13.9991 5.63111L13.7628 5.50453L13.6211 5.76897ZM13.8574 5.89556L13.9756 5.95885L14.1172 5.6944L13.9991 5.63111L13.8574 5.89556ZM13.9756 5.95885L14.0346 5.99049L14.1763 5.72605L14.1172 5.6944L13.9756 5.95885ZM14.0616 6.00172L14.1376 6.02493L14.2252 5.73802L14.1493 5.71482L14.0616 6.00172ZM17.1464 20.7435L17.0958 20.5156L16.8029 20.5807L16.8536 20.8085L17.1464 20.7435ZM17.0235 20.2962L16.956 20.1949L16.7064 20.3613L16.7739 20.4626L17.0235 20.2962ZM16.9451 20.1805L16.8945 20.1214L16.6667 20.3166L16.7173 20.3757L16.9451 20.1805ZM17.0958 20.5156L17.0789 20.4397L16.786 20.5047L16.8029 20.5807L17.0958 20.5156ZM17.0734 20.4209L17.0397 20.3281L16.7577 20.4306L16.7915 20.5235L17.0734 20.4209ZM16.8782 20.1051L16.8191 20.0545L16.6239 20.2823L16.683 20.3329L16.8782 20.1051ZM16.802 20.0418L16.7092 19.9828L16.5481 20.2359L16.641 20.2949L16.802 20.0418ZM16.6958 19.9752L16.5945 19.9245L16.4603 20.1929L16.5616 20.2435L16.6958 19.9752ZM16.5875 19.9213L16.4525 19.8622L16.3323 20.137L16.4673 20.1961L16.5875 19.9213ZM15.6341 19.7482L15.5834 19.782L15.7499 20.0316L15.8005 19.9978L15.6341 19.7482ZM15.5606 19.8007L15.5268 19.8345L15.739 20.0466L15.7727 20.0129L15.5606 19.8007ZM15.901 19.7153L15.8588 19.7111L15.8289 20.0096L15.8711 20.0139L15.901 19.7153ZM15.8439 19.7104H15.7848V20.0104H15.8439V19.7104ZM16.5477 22.3108L17.0287 21.4753L16.7687 21.3256L16.2877 22.1611L16.5477 22.3108ZM16.3072 22.7285L16.5477 22.3108L16.2877 22.1611L16.0472 22.5788L16.3072 22.7285ZM16.1366 23.0321L16.1894 22.9329L15.9245 22.792L15.8718 22.8912L16.1366 23.0321ZM16.1869 22.9373L16.3072 22.7285L16.0472 22.5788L15.9269 22.7876L16.1869 22.9373ZM15.602 24.2358L15.8383 23.6831L15.5625 23.5651L15.3262 24.1179L15.602 24.2358ZM15.8383 23.6831L15.9565 23.4067L15.6806 23.2888L15.5625 23.5651L15.8383 23.6831ZM15.9537 23.4127L16.1394 23.0267L15.869 22.8966L15.6834 23.2827L15.9537 23.4127ZM15.3934 24.7869L15.6044 24.23L15.3238 24.1237L15.1129 24.6807L15.3934 24.7869ZM15.048 25.8753L15.1029 25.6664L14.8127 25.5902L14.7579 25.7991L15.048 25.8753ZM15.1011 25.6725L15.291 25.0565L15.0043 24.9681L14.8144 25.5841L15.1011 25.6725ZM15.2879 25.0654L15.3934 24.7869L15.1129 24.6807L15.0074 24.9591L15.2879 25.0654ZM14.909 26.4206L14.9787 26.1474L14.688 26.0733L14.6183 26.3465L14.909 26.4206ZM14.9787 26.1474L15.0483 25.8742L14.7576 25.8001L14.688 26.0733L14.9787 26.1474ZM14.7698 26.967L14.909 26.4206L14.6183 26.3465L14.4791 26.893L14.7698 26.967ZM14.583 28.0467L14.7033 27.2249L14.4064 27.1815L14.2862 28.0032L14.583 28.0467ZM14.7002 27.2402L14.7698 26.967L14.4791 26.893L14.4095 27.1662L14.7002 27.2402ZM14.3983 30.1059L14.5165 28.7979L14.2177 28.7709L14.0995 30.079L14.3983 30.1059ZM14.5165 28.7979L14.5755 28.1439L14.2767 28.1169L14.2177 28.7709L14.5165 28.7979ZM14.5757 28.1424L14.5841 28.0369L14.2851 28.013L14.2766 28.1185L14.5757 28.1424ZM18.4021 6.46498L18.9591 7.15696L19.1928 6.96886L18.6358 6.27688L18.4021 6.46498ZM18.9626 7.16115L19.2917 7.5409L19.5184 7.34442L19.1893 6.96467L18.9626 7.16115ZM19.2858 7.53366L19.4082 7.694L19.6466 7.512L19.5243 7.35166L19.2858 7.53366ZM19.4224 7.71007L19.646 7.92948L19.8561 7.71533L19.6325 7.49593L19.4224 7.71007ZM19.6573 7.93954L19.8261 8.07456L20.0135 7.8403L19.8447 7.70528L19.6573 7.93954ZM19.8323 8.07923L20.1023 8.27332L20.2774 8.02972L20.0074 7.83562L19.8323 8.07923Z" fill="white"/>
<path d="M11.1105 21.3077C11.0734 21.3818 11.1035 21.4719 11.1775 21.5089C11.2516 21.546 11.3417 21.5159 11.3788 21.4418L11.1105 21.3077ZM11.7171 20.4467L11.8506 20.5159L11.855 20.5058L11.7171 20.4467ZM11.4809 20.9023L11.3477 20.8332L11.3467 20.8352L11.4809 20.9023ZM11.9196 19.9743L12.0574 20.0333L12.0612 20.0246L12.0638 20.0155L11.9196 19.9743ZM11.9702 19.7971L11.8321 19.7385L11.8285 19.747L11.826 19.7559L11.9702 19.7971ZM11.855 20.5058L12.0574 20.0333L11.7817 19.9152L11.5792 20.3876L11.855 20.5058ZM11.614 20.9713L11.7321 20.7436L11.4658 20.6055L11.3477 20.8332L11.614 20.9713ZM11.7321 20.7436L11.8502 20.5158L11.5839 20.3777L11.4658 20.6055L11.7321 20.7436ZM11.4969 21.2056L11.615 20.9694L11.3467 20.8352L11.2286 21.0714L11.4969 21.2056ZM11.4378 21.3237L11.4969 21.2056L11.2286 21.0714L11.1695 21.1896L11.4378 21.3237ZM11.3788 21.4418L11.4083 21.3828L11.14 21.2486L11.1105 21.3077L11.3788 21.4418ZM11.4083 21.3828L11.4378 21.3237L11.1695 21.1896L11.14 21.2486L11.4083 21.3828ZM12.1083 19.8557L12.2264 19.5773L11.9502 19.4601L11.8321 19.7385L12.1083 19.8557ZM12.0638 20.0155L12.1144 19.8383L11.826 19.7559L11.7753 19.9331L12.0638 20.0155ZM12.0154 19.4673L11.8467 19.7119L12.0937 19.8822L12.2624 19.6376L12.0154 19.4673ZM12.0937 19.8822L12.1359 19.8211L11.8889 19.6508L11.8467 19.7119L12.0937 19.8822ZM12.1359 19.8211L12.2624 19.6376L12.0154 19.4673L11.8889 19.6508L12.1359 19.8211Z" fill="white"/>
<path d="M12.3081 21.1895L12.3187 21.1452L12.3292 21.1009L12.3397 21.0566L12.3503 21.0123L12.3714 20.9237L12.3925 20.8352V20.253V19.962V19.6709M12.3925 19.6709L12.3419 19.6371L12.3756 19.789L12.3587 19.654L12.3925 19.924V19.6709Z" stroke="white" stroke-width="0.3" stroke-linecap="round" stroke-linejoin="round"/>
</svg>
